
<svg width="416pt" height="416pt" viewBox="-13 0 416 416.02" xmlns="http://www.w3.org/2000/svg" class="icon">
<path d="m41.492 28.504c1.7461 0 3.4922-0.66406 4.8242-2l14.855-14.852c2.6641-2.6641 2.6641-6.9883 0-9.6523-2.668-2.668-6.9883-2.668-9.6523 0l-14.855 14.852c-2.6641 2.668-2.6641 6.9883 0 9.6523 1.332 1.3359 3.0781 2 4.8281 2z"/>
<path d="m26.516 46.305c2.668-2.6641 2.668-6.9844 0-9.6523-2.6641-2.6641-6.9844-2.6641-9.6523 0l-14.852 14.855c-2.668 2.6641-2.668 6.9844 0 9.6523 1.332 1.332 3.0781 2 4.8242 2 1.7461 0 3.4961-0.66797 4.8281-2z"/>
<path d="m16.863 26.504c1.332 1.3359 3.082 2 4.8281 2s3.4922-0.66406 4.8242-2c2.668-2.6641 2.668-6.9844 0-9.6523l-14.852-14.852c-2.668-2.668-6.9883-2.668-9.6523 0-2.668 2.6641-2.668 6.9883 0 9.6523z"/>
<path d="m51.52 61.16c1.332 1.332 3.0781 2 4.8242 2s3.4922-0.66797 4.8281-2c2.6641-2.668 2.6641-6.9883 0-9.6523l-14.855-14.855c-2.6641-2.6641-6.9844-2.6641-9.6523 0-2.6641 2.668-2.6641 6.9883 0 9.6523z"/>
<path d="m344.3 80.52c11.613 0 21.059-9.4453 21.059-21.055 0-11.613-9.4453-21.059-21.059-21.059s-21.062 9.4453-21.062 21.059c0 11.609 9.4492 21.055 21.062 21.055zm0-28.461c4.0859 0 7.4062 3.3203 7.4062 7.4062 0 4.082-3.3203 7.4023-7.4062 7.4023s-7.4062-3.3203-7.4062-7.4023c0-4.0859 3.3203-7.4062 7.4062-7.4062z"/>
<path d="m292.06 25.328c0 5.082-4.1211 9.2031-9.2031 9.2031s-9.2031-4.1211-9.2031-9.2031 4.1211-9.1992 9.2031-9.1992 9.2031 4.1172 9.2031 9.1992z"/>
<path d="m185.53 68.699c1.332 1.332 3.0781 2 4.8242 2 1.7461 0 3.4961-0.66797 4.8281-2l5.2344-5.2344 5.2383 5.2344c1.332 1.332 3.0781 2 4.8242 2 1.7461 0 3.4961-0.66797 4.8281-2 2.6641-2.6641 2.6641-6.9883 0-9.6523l-5.2344-5.2344 5.2344-5.2305c2.6641-2.668 2.6641-6.9883 0-9.6523-2.668-2.668-6.9883-2.668-9.6523 0l-5.2383 5.2344-5.2344-5.2344c-2.668-2.668-6.9883-2.668-9.6523 0-2.668 2.6641-2.668 6.9844 0 9.6523l5.2344 5.2305-5.2344 5.2344c-2.668 2.6641-2.668 6.9883 0 9.6523z"/>
<path d="m381.56 325.78-15.914-19.098c-4.918-5.8984-8.3164-13.004-9.832-20.543-2.0664-10.359-0.50781-21.215 4.3867-30.562l14.875-28.395c8.0234-15.332 6.5039-34.176-3.875-48.02-10.16-13.551-26.867-20.258-43.535-17.445l-13.898 2.3203c-9.9414 1.6836-19.953-2.2344-26.168-10.148l-13.652-17.375c-6.4414-8.1914-15.074-14.266-24.969-17.566-11.312-3.7773-23.734-3.6055-34.953 0.46875l-7.3633 2.6797c-4.3672 1.5859-9.293 0.050782-11.996-3.7227-6.3984-8.9648-16.379-14.594-27.359-15.441l-12.391-0.95312c-11.375-0.87891-22.387 3.4336-30.133 11.836l-16.574 17.953c-1.6719 1.8125-3.9531 2.8125-6.4297 2.8125-2.4727 0-4.7578-1-6.4375-2.8203l-16.965-18.379c-7.6367-8.2695-19.109-11.574-29.961-8.6016-15.387 4.1992-24.812 19.707-21.445 35.309l12.758 59.012c4.7695 22.047 2.5938 44.801-6.2852 65.82-8.3789 19.84-14.75 37.301-18.922 51.895-4.1328 14.465-4.3008 29.52-0.47266 43.531 6.6719 24.441 25.473 37 124.72 51.52 18.906 2.7734 38.316 4.1562 58.117 4.1562 30.07 0 61.062-3.1875 92.68-9.5547 3.6992-0.74609 6.0859-4.3477 5.3477-8.0391-0.75-3.6992-4.3633-6.1133-8.043-5.3477-50.883 10.246-100.05 12.027-146.12 5.2812-98.781-14.453-109.36-26.359-113.52-41.613-3.168-11.602-3.0234-24.113 0.43359-36.188 4.0195-14.059 10.191-30.992 18.359-50.328 9.9805-23.617 12.418-49.211 7.0586-74.012l-12.758-59.012c-1.8359-8.5078 3.3008-16.969 11.699-19.254 5.9102-1.6211 12.164 0.1875 16.332 4.6953l16.965 18.379c4.2266 4.582 10.234 7.207 16.465 7.207h0.007812c6.2344 0 12.234-2.625 16.453-7.207l16.574-17.953c4.8984-5.3086 11.902-8.0273 19.047-7.4805l12.402 0.95312c6.9375 0.53125 13.246 4.0938 17.297 9.7617 6.2539 8.7461 17.68 12.297 27.77 8.6133l7.3672-2.6797c8.3242-3.0234 17.559-3.1562 25.965-0.34766 7.3555 2.4531 13.766 6.9727 18.555 13.059l13.652 17.375c9.3008 11.836 24.273 17.641 39.148 15.176l13.898-2.3203c11.676-1.9609 23.277 2.7266 30.367 12.168 7.2422 9.6562 8.3008 22.805 2.6992 33.5l-14.871 28.391c-6.3398 12.102-8.3594 26.156-5.6797 39.57 1.957 9.7734 6.3594 18.973 12.727 26.617l15.918 19.098c3.5547 4.2656 5.5117 9.6719 5.5117 15.23 0 9.8828-6.1797 18.828-15.371 22.27-5.1016 1.8984-11.121 4.0312-17.949 6.2578-3.5859 1.1758-5.5469 5.0273-4.3789 8.6094 1.1758 3.5898 5.0547 5.5508 8.6094 4.3789 7.0391-2.293 13.23-4.4961 18.492-6.4609 14.508-5.4219 24.254-19.508 24.254-35.055-0.003906-8.75-3.0898-17.27-8.6836-23.98z"/>
<path d="m324.38 384.03c-3.3594 0.95312-6.8477 1.8984-10.445 2.832-3.6523 0.94922-5.8398 4.6719-4.8945 8.3203 0.80078 3.0742 3.5703 5.1133 6.6016 5.1133 0.56641 0 1.1484-0.066407 1.7188-0.21875 3.6953-0.96094 7.2734-1.9336 10.727-2.9023 3.6289-1.0273 5.7422-4.793 4.7227-8.4258-1.0273-3.6211-4.7812-5.7266-8.4297-4.7188z"/>
<path d="m244.18 183.61c0-3.4961-2.832-6.3281-6.3281-6.3281-3.4961 0-6.3281 2.832-6.3281 6.3281 0 3.4961 2.832 6.3281 6.3281 6.3281 3.4961 0 6.3281-2.832 6.3281-6.3281z"/>
<path d="m165.07 174.12c0-3.4922-2.8359-6.3281-6.3281-6.3281-3.4961 0-6.3281 2.8359-6.3281 6.3281 0 3.4961 2.832 6.3281 6.3281 6.3281 3.4922 0.003907 6.3281-2.832 6.3281-6.3281z"/>
<path d="m117.35 194.45c-1.0078 3.6328 1.1172 7.3945 4.7539 8.4102 2.1445 0.59375 48.867 13.324 119 13.324 7.1992 0 14.652-0.13281 22.32-0.43359 3.7734-0.14453 6.707-3.3125 6.5586-7.0781-0.13672-3.7734-3.4492-6.8281-7.0781-6.5586-80.141 3.0703-136.6-12.262-137.15-12.414-3.6875-1.0039-7.3984 1.125-8.4062 4.75z"/>
</svg>
